Coordinates
version=1
nRows=16
nColumns=40
inDegrees=yes

Units are S.I. units (second, meters, Newtons, ...)
Angles are in degrees.

endheader
time	pelvis_tilt	pelvis_list	pelvis_rotation	pelvis_tx	pelvis_ty	pelvis_tz	hip_flexion_r	hip_adduction_r	hip_rotation_r	knee_angle_r	knee_angle_r_beta	ankle_angle_r	subtalar_angle_r	mtp_angle_r	hip_flexion_l	hip_adduction_l	hip_rotation_l	knee_angle_l	knee_angle_l_beta	ankle_angle_l	subtalar_angle_l	mtp_angle_l	lumbar_extension	lumbar_bending	lumbar_rotation	arm_flex_r	arm_add_r	arm_rot_r	elbow_flex_r	pro_sup_r	wrist_flex_r	wrist_dev_r	arm_flex_l	arm_add_l	arm_rot_l	elbow_flex_l	pro_sup_l	wrist_flex_l	wrist_dev_l
     59.07828571	     -3.89159116	     -5.96503146	     -0.40151272	      1.15769748	      0.93476317	      0.41098207	     31.81211149	     -4.86521226	     -6.92333280	     55.97636608	     55.97636608	     -1.49649904	    -13.57000360	     -1.63984266	     13.51411118	     -6.47150366	     -8.60529842	     21.86013710	     21.86013710	     14.08850669	    -10.36852432	      0.33690678	    -10.98345990	      4.98858047	      1.79056737	      3.94424839	    -14.59630889	     -4.02302670	     26.85619302	     47.01475081	      0.00000000	      0.00000000	     18.03242541	    -14.78665022	     -7.55416790	     59.77064315	     46.74873976	      0.00000000	      0.00000000
     59.09157143	     -4.05817695	     -6.03126945	     -0.70772654	      1.15662023	      0.93496043	      0.41102170	     31.86683514	     -4.64262071	     -7.25062839	     52.79630572	     52.79630572	     -1.05806349	    -13.40873958	     -1.43293768	     13.08345570	     -6.54233189	     -8.89883710	     21.38811269	     21.38811269	     14.20294540	    -10.22925302	      0.28341155	    -10.95377807	      5.06376476	      1.78314298	      3.37824226	    -14.73078010	     -4.19042651	     26.54294621	     47.03191920	      0.00000000	      0.00000000	     18.63718708	    -14.87046806	     -7.85079856	     60.65574362	     46.79234138	      0.00000000	      0.00000000
     59.10485714	     -4.11400599	     -6.02212172	     -1.04257201	      1.15563319	      0.93520162	      0.41112424	     31.63914303	     -4.42886982	     -7.50912311	     49.26083488	     49.26083488	     -0.61833119	    -13.06019735	     -1.37266053	     12.51529988	     -6.54841465	     -9.29814902	     20.91695263	     20.91695263	     14.31445228	    -10.00725868	      0.09817310	    -11.05897300	      5.05804028	      1.90420706	      2.86186715	    -14.88349020	     -4.50617051	     26.26905713	     47.05651987	      0.00000000	      0.00000000	     19.11587147	    -14.78500536	     -8.31337186	     61.94817188	     46.85547799	      0.00000000	      0.00000000
     59.11814286	     -4.41115533	     -6.00314277	     -1.36107694	      1.15453278	      0.93498419	      0.41141741	     31.54596550	     -4.18634705	     -7.80137580	     45.47379491	     45.47379491	     -0.12320098	    -12.39015505	     -1.20646741	     12.27942468	     -6.54846713	     -9.62136722	     20.53458008	     20.53458008	     14.38978656	     -9.92697781	     -0.00575094	    -10.83289249	      5.06024683	      1.81367180	      2.42993393	    -14.88287500	     -4.68324586	     26.13016323	     47.06821028	      0.00000000	      0.00000000	     19.57570690	    -14.93045226	     -8.60799641	     62.70903716	     46.89556475	      0.00000000	      0.00000000
     59.13142857	     -4.53243135	     -5.97846730	     -1.66556884	      1.15362133	      0.93497299	      0.41183227	     31.04459008	     -3.90468242	     -8.15563512	     41.35595534	     41.35595534	      0.38954906	    -11.29036089	     -1.16126432	     11.82054516	     -6.54920678	     -9.97392945	     20.12663947	     20.12663947	     14.48922095	     -9.78056239	     -0.19868345	    -10.83573669	      5.03664141	      1.80279781	      2.05353138	    -14.97581028	     -4.95806392	     26.05142620	     47.08415456	      0.00000000	      0.00000000	     19.92940881	    -14.91416897	     -8.96839704	     63.66964810	     46.94356033	      0.00000000	      0.00000000
     59.14471429	     -4.75721261	     -5.92682491	     -1.97341426	      1.15268223	      0.93466780	      0.41239530	     30.53955319	     -3.57478815	     -8.45976432	     37.09057045	     37.09057045	      0.90643202	     -9.81846905	     -1.08066717	     11.50183791	     -6.52953785	    -10.31620858	     19.76093848	     19.76093848	     14.59208304	     -9.66544045	     -0.40494397	    -10.70696149	      5.00151648	      1.77287501	      1.74262495	    -14.94805785	     -5.20624586	     26.04830859	     47.09556077	      0.00000000	      0.00000000	     20.24284703	    -14.96947373	     -9.28481209	     64.47024280	     46.98511191	      0.00000000	      0.00000000
     59.15800000	     -4.84453315	     -5.85068809	     -2.23043650	      1.15190121	      0.93444758	      0.41300660	     29.71209246	     -3.26365327	     -8.86132431	     32.68026264	     32.68026264	      1.41464476	     -7.67300410	     -1.11339070	     11.03737096	     -6.48983766	    -10.66849048	     19.41090890	     19.41090890	     14.68704369	     -9.45217733	     -0.74650090	    -10.77247309	      4.95055453	      1.72113110	      1.49847250	    -14.95562599	     -5.60481943	     26.16000504	     47.11158318	      0.00000000	      0.00000000	     20.44838732	    -14.96811952	     -9.68496025	     65.39729941	     47.03557525	      0.00000000	      0.00000000
     59.17128571	     -5.01378237	     -5.68525781	     -2.46410506	      1.15127705	      0.93391280	      0.41371922	     28.90755320	     -3.05035718	     -9.43909904	     28.36999670	     28.36999670	      1.83811262	     -4.97410967	     -1.27049150	     10.64340933	     -6.36330264	    -11.09385353	     19.02899818	     19.02899818	     14.69334541	     -9.19047703	     -1.46673851	    -10.68664210	      4.79338809	      1.54505838	      1.31607745	    -14.80759301	     -6.60113322	     26.53918832	     47.14696846	      0.00000000	      0.00000000	     20.34557570	    -14.97000713	    -10.39082081	     66.60268883	     47.11886880	      0.00000000	      0.00000000
     59.18457143	     -5.21954839	     -5.63588181	     -2.66110214	      1.15069908	      0.93328563	      0.41475552	     28.03222864	     -2.50864576	     -9.58449239	     24.11443763	     24.11443763	      2.17570730	     -2.86483735	     -0.60414769	     10.40405467	     -6.37372242	    -11.26368232	     18.86094369	     18.86094369	     14.83872054	     -9.21087018	     -1.66590274	    -10.47204219	      4.77929519	      1.45283593	      1.22309703	    -14.69781754	     -6.80313633	     26.60375237	     47.15238263	      0.00000000	      0.00000000	     20.54532963	    -15.03366855	    -10.44924374	     66.86948981	     47.13229736	      0.00000000	      0.00000000
     59.19785714	     -5.20860566	     -5.50854834	     -2.80303998	      1.15043670	      0.93279278	      0.41570926	     26.93841179	     -2.16240501	    -10.08663453	     20.28861249	     20.28861249	      2.60786972	      0.00837713	      0.30712697	      9.90075850	     -6.29341586	    -11.50519392	     18.67512310	     18.67512310	     15.03143748	     -9.03481053	     -2.00414195	    -10.53011559	      4.71062702	      1.36462231	      1.19005935	    -14.68600921	     -7.13593780	     26.77420229	     47.16052294	      0.00000000	      0.00000000	     20.67460542	    -15.06475277	    -10.49832897	     67.12373871	     47.14616300	      0.00000000	      0.00000000
     59.21114286	     -5.28964276	     -5.34615898	     -2.91997138	      1.15029488	      0.93205413	      0.41686811	     26.04347244	     -1.83699497	    -10.58550644	     17.05037998	     17.05037998	      2.98942339	      2.57886093	      1.48949029	      9.52169453	     -6.19453397	    -11.72700024	     18.53611530	     18.53611530	     15.22933032	     -8.88848037	     -2.33955693	    -10.40248415	      4.57479992	      1.29184426	      1.19697251	    -14.58650132	     -7.45231336	     26.99788547	     47.16499540	      0.00000000	      0.00000000	     20.71786912	    -15.09976441	    -10.48688254	     67.23368108	     47.15365740	      0.00000000	      0.00000000
     59.22442857	     -5.36483257	     -5.13186259	     -3.01897100	      1.15029395	      0.93124860	      0.41803570	     25.43764295	     -1.71452538	    -11.53625207	     14.89387330	     14.89387330	      4.21124552	      5.67964819	      4.88011726	      9.12791482	     -6.05230210	    -12.02948685	     18.38339076	     18.38339076	     15.33681402	     -8.62768384	     -3.02234256	    -10.26348635	      4.41254072	      1.31336940	      1.06604760	    -14.41334248	     -8.64104423	     27.65202890	     47.17774547	      0.00000000	      0.00000000	     20.78401348	    -15.06654675	    -10.31650068	     67.15736099	     47.16429729	      0.00000000	      0.00000000
     59.23771429	     -5.38354329	     -5.02774714	     -3.07639442	      1.15046058	      0.93054303	      0.41947953	     24.63384725	     -1.30018154	    -11.76291209	     12.81640710	     12.81640710	      4.25175628	      6.91693302	      5.71226215	      8.71935860	     -6.01884861	    -12.08108310	     18.34165999	     18.34165999	     15.59651029	     -8.62509057	     -3.15495862	    -10.16072810	      4.36480233	      1.24297765	      1.24059857	    -14.33650914	     -8.86646223	     27.86415823	     47.17319175	      0.00000000	      0.00000000	     20.72405349	    -15.07764831	    -10.17260556	     66.89813242	     47.15578317	      0.00000000	      0.00000000
     59.25100000	     -5.47863907	     -4.87890246	     -3.11491278	      1.15073915	      0.92969742	      0.42098877	     24.05996574	     -1.00482711	    -12.09220795	     11.43264938	     11.43264938	      4.17251595	      7.85043234	      6.14301110	      8.38858741	     -5.94715511	    -12.16007790	     18.29225664	     18.29225664	     15.87201284	     -8.54948140	     -3.27603657	     -9.92973669	      4.29282344	      1.16773250	      1.42200780	    -14.24296076	     -8.99480372	     28.09755837	     47.16556788	      0.00000000	      0.00000000	     20.56806200	    -15.08966389	    -10.03855016	     66.56810493	     47.14363995	      0.00000000	      0.00000000
     59.26428571	     -5.56518876	     -4.70828259	     -3.13017071	      1.15109381	      0.92865747	      0.42262440	     23.93573503	     -0.84330098	    -12.25266511	     11.30509927	     11.30509927	      4.25219774	      7.84603549	      6.14254078	      8.09390571	     -5.85975734	    -12.16966545	     18.33148143	     18.33148143	     16.16945385	     -8.61602307	     -3.38534245	     -9.68212038	      4.16455601	      1.24261571	      1.58129533	    -14.23656077	     -9.00341020	     28.18071714	     47.16336501	      0.00000000	      0.00000000	     20.44495270	    -15.00607993	     -9.99514684	     66.49482323	     47.13867597	      0.00000000	      0.00000000
     59.27757143	     -5.43760725	     -4.67628367	     -3.12751542	      1.15193344	      0.92834485	      0.42428038	     22.94585363	     -0.50581273	    -12.75314215	     10.31049843	     10.31049843	      3.79006648	      8.56685097	      5.95967229	      7.40002978	     -5.90855252	    -12.29707564	     18.13237939	     18.13237939	     16.48251616	     -8.30102284	     -3.38162474	     -9.62931823	      4.29641902	      0.93014733	      2.07630381	    -14.14323176	     -9.15455902	     28.75768373	     47.14288005	      0.00000000	      0.00000000	     19.91949241	    -15.02660527	     -9.70522301	     65.42755735	     47.10167785	      0.00000000	      0.00000000
